<?xml version="1.0" standalone="no"?>
<!DOCTYPE svg PUBLIC "-//W3C//DTD SVG 20010904//EN"
 "http://www.w3.org/TR/2001/REC-SVG-20010904/DTD/svg10.dtd">
<svg version="1.0" xmlns="http://www.w3.org/2000/svg"
 width="2000.000000pt" height="2000.000000pt" viewBox="0 0 2000.000000 2000.000000"
 preserveAspectRatio="xMidYMid meet">

<g transform="translate(0.000000,2000.000000) scale(0.100000,-0.100000)"
fill="#000000" stroke="none">
<path d="M9835 16627 c-27 -8 -99 -37 -159 -65 -59 -29 -110 -52 -112 -52 -2
0 -52 -23 -111 -50 -60 -28 -129 -60 -155 -72 -26 -12 -44 -26 -41 -32 3 -5 1
-6 -5 -3 -13 9 -213 -83 -207 -94 3 -4 0 -11 -6 -15 -8 -4 -9 -3 -5 4 10 17
-1 15 -43 -7 -20 -10 -73 -36 -118 -57 -45 -21 -80 -41 -78 -45 3 -4 -1 -6 -8
-5 -19 2 -476 -217 -471 -226 3 -4 -3 -5 -12 -1 -13 5 -15 3 -9 -7 5 -8 4 -11
-2 -7 -6 4 -113 -43 -239 -103 -125 -61 -253 -122 -285 -137 -32 -15 -55 -31
-52 -36 3 -6 2 -8 -3 -5 -5 4 -22 0 -39 -8 -16 -8 -22 -12 -12 -9 11 3 16 1
12 -6 -4 -6 -13 -8 -21 -5 -17 7 -277 -117 -267 -128 4 -4 -1 -4 -11 0 -15 6
-17 4 -11 -6 5 -8 4 -11 -2 -7 -11 7 -303 -129 -314 -145 -3 -5 -9 -9 -13 -8
-13 4 -315 -143 -310 -151 2 -4 -1 -11 -7 -15 -8 -4 -9 -3 -5 4 10 17 -1 15
-43 -7 -20 -11 -77 -39 -128 -63 -50 -23 -89 -46 -87 -50 3 -4 -2 -5 -10 -2
-9 3 -16 1 -16 -5 0 -6 -6 -11 -14 -11 -26 0 -335 -153 -329 -163 3 -6 1 -7
-4 -4 -14 9 -95 -27 -86 -37 4 -4 -1 -4 -11 0 -15 6 -17 4 -11 -6 5 -8 4 -11
-2 -7 -6 4 -48 -12 -94 -34 -91 -45 -197 -94 -386 -179 -41 -18 -70 -37 -66
-43 3 -6 1 -7 -6 -3 -7 5 -30 -8 -57 -29 -62 -51 -94 -122 -94 -212 0 -71 25
-157 43 -146 5 3 7 1 4 -4 -9 -14 32 -65 45 -57 6 4 8 2 5 -3 -8 -13 13 -31
76 -67 27 -15 55 -25 63 -22 8 3 13 2 10 -3 -7 -11 43 -33 56 -25 7 5 8 2 3
-6 -6 -10 -4 -12 11 -6 10 4 15 4 11 0 -8 -9 64 -44 180 -88 l71 -27 7 -133
c4 -73 5 -484 2 -915 l-4 -782 -31 -49 c-17 -27 -27 -51 -24 -53 4 -2 2 -2 -5
-1 -16 4 -36 -23 -27 -37 4 -8 3 -9 -4 -5 -14 9 -44 -38 -73 -114 -26 -67 -31
-230 -8 -270 7 -14 12 -31 10 -39 -1 -8 2 -10 10 -5 8 4 10 3 5 -5 -17 -27 80
-149 157 -198 61 -38 180 -65 257 -59 69 6 154 30 180 51 8 7 24 15 35 19 15
5 16 9 6 15 -10 6 -9 10 4 14 9 4 13 3 10 -3 -17 -27 16 -4 62 43 52 53 98
130 88 146 -3 5 0 11 6 13 18 6 29 115 19 188 -12 97 -76 230 -102 214 -7 -5
-8 -2 -3 5 4 8 -4 25 -23 44 -31 34 -49 64 -59 100 -4 12 -8 355 -10 762 -1
407 -5 748 -7 758 -2 9 0 15 5 11 5 -3 9 2 9 10 0 20 10 20 38 0 12 -8 22 -13
22 -10 0 3 15 -3 33 -14 36 -22 52 -26 41 -8 -4 7 -3 8 5 4 6 -4 9 -11 6 -16
-7 -11 24 -22 37 -13 7 4 8 1 3 -7 -6 -10 -2 -12 18 -8 16 3 24 1 21 -6 -4
-12 101 -62 124 -60 7 1 11 -1 7 -4 -9 -9 255 -133 268 -125 5 3 7 1 4 -4 -4
-6 14 -20 42 -32 l49 -21 -5 -527 c-4 -372 -2 -552 6 -608 7 -44 12 -87 12
-95 0 -8 3 -32 6 -54 4 -28 8 -35 14 -25 7 10 8 6 4 -11 -9 -37 28 -85 110
-147 39 -29 74 -53 78 -53 4 0 21 -10 36 -21 17 -13 34 -18 42 -14 8 6 10 4 4
-5 -6 -10 -4 -12 8 -7 9 3 16 2 14 -3 -1 -6 21 -23 48 -39 41 -23 55 -27 70
-18 18 9 19 9 6 -6 -12 -15 -12 -17 4 -11 11 5 16 3 12 -2 -8 -14 50 -47 65
-38 6 4 8 3 5 -3 -4 -6 23 -26 61 -45 37 -19 116 -60 175 -91 60 -32 113 -54
119 -51 6 4 8 3 5 -3 -7 -11 67 -48 90 -46 7 0 10 -4 6 -10 -4 -7 0 -8 13 -3
10 4 15 4 11 0 -8 -9 58 -45 75 -40 7 1 9 1 5 -2 -14 -7 43 -31 61 -26 12 4
13 3 4 -3 -15 -11 53 -47 70 -37 7 5 8 2 3 -6 -6 -10 -4 -12 11 -6 10 4 15 4
11 -1 -11 -10 311 -165 325 -157 6 4 8 3 5 -3 -8 -13 210 -116 225 -107 6 4 8
2 5 -3 -7 -11 108 -69 130 -67 7 1 10 -3 6 -9 -4 -6 0 -8 11 -4 9 4 15 3 12
-1 -7 -12 63 -44 77 -36 7 4 9 4 5 -1 -9 -10 62 -46 75 -38 6 3 7 2 4 -4 -3
-5 23 -24 59 -41 71 -35 79 -37 68 -20 -4 7 -3 8 5 4 6 -4 8 -12 5 -18 -5 -8
-1 -9 12 -4 10 4 15 4 11 0 -10 -10 31 -36 45 -28 6 4 9 3 5 -2 -6 -10 220
-130 240 -128 7 1 10 -3 6 -9 -4 -6 0 -8 11 -4 9 4 15 3 12 -1 -3 -5 11 -16
30 -25 38 -19 58 -22 34 -7 -9 6 -10 10 -3 10 7 0 16 -7 21 -15 13 -24 149
-67 227 -73 72 -4 169 14 229 43 16 8 33 15 38 15 22 0 218 101 218 112 0 6 3
9 6 5 7 -7 65 21 209 102 55 31 134 74 177 96 42 22 74 44 71 49 -4 5 -1 6 4
3 14 -9 195 87 186 98 -5 4 -3 5 4 1 7 -4 23 0 35 8 13 8 89 48 171 88 81 41
144 78 140 82 -4 4 -1 4 8 1 8 -3 23 2 34 11 11 8 14 12 6 8 -9 -5 -12 -3 -7
5 4 6 12 9 17 6 13 -9 149 57 142 68 -3 6 -1 7 5 3 13 -8 94 33 88 43 -2 3 6
7 17 8 32 2 309 138 300 147 -4 4 1 4 11 0 15 -6 17 -4 11 6 -5 8 -4 11 3 6
13 -8 143 54 136 66 -3 4 3 5 12 1 13 -5 15 -3 9 7 -5 8 -4 11 3 6 14 -9 63
14 55 27 -3 6 -1 7 5 3 6 -4 40 9 74 27 35 19 99 53 143 77 122 64 266 155
306 193 40 38 60 86 63 147 0 21 4 36 7 34 16 -10 24 219 24 710 l0 539 48 21
c27 11 46 24 43 27 -3 3 1 6 9 6 24 0 115 45 109 54 -3 5 3 6 12 2 12 -4 15
-3 10 5 -5 8 -1 10 10 5 13 -5 15 -3 9 7 -5 8 -4 11 2 7 14 -9 146 56 136 66
-4 5 1 5 11 1 15 -6 17 -4 11 6 -5 8 -4 11 3 6 15 -9 175 72 167 84 -3 5 0 7
8 4 7 -2 41 11 75 30 33 19 71 37 83 41 17 6 19 9 8 17 -11 8 -10 9 4 4 22 -7
88 24 80 37 -3 6 -1 7 5 3 13 -8 63 14 56 25 -3 5 3 6 12 2 11 -4 15 -2 11 4
-4 6 -1 10 6 9 22 -2 157 66 150 77 -3 6 -1 7 5 3 15 -9 55 18 44 29 -4 5 -1
5 6 0 16 -9 94 24 86 36 -3 5 3 6 12 2 13 -5 15 -3 9 7 -5 9 -4 11 4 6 7 -4
26 -1 44 7 166 79 207 97 217 97 6 0 8 4 5 10 -4 6 1 7 11 3 13 -5 15 -3 9 7
-5 8 -4 11 3 6 12 -7 132 51 132 65 0 5 6 9 14 9 22 0 81 75 94 119 33 108 1
237 -73 298 -50 42 -153 95 -167 87 -6 -4 -8 -3 -5 3 8 13 -270 146 -285 137
-6 -4 -8 -3 -4 4 3 6 -3 14 -15 17 -23 8 -243 109 -272 125 -10 6 -23 8 -30 4
-7 -4 -8 -3 -4 2 10 10 -91 56 -106 47 -5 -3 -7 -2 -4 4 6 10 -282 156 -308
156 -8 0 -13 3 -10 5 3 3 -7 11 -21 19 -20 10 -30 10 -41 2 -10 -9 -12 -9 -8
3 4 10 -7 21 -37 34 -23 10 -46 18 -50 17 -5 -2 -8 1 -8 5 0 13 -50 33 -62 26
-6 -4 -8 -2 -5 3 6 10 -123 77 -149 78 -6 0 -18 6 -26 12 -23 20 -221 112
-229 107 -4 -2 -9 0 -11 4 -3 8 -132 77 -150 81 -4 1 -67 31 -140 66 -73 36
-139 63 -146 60 -8 -3 -10 0 -6 7 5 8 2 9 -10 5 -9 -4 -15 -3 -12 1 3 5 -32
26 -77 47 -45 21 -128 60 -185 87 -56 27 -108 46 -114 42 -6 -4 -8 -3 -5 3 8
12 -61 46 -75 37 -7 -5 -8 -2 -3 6 6 10 4 12 -8 7 -10 -3 -17 -3 -17 1 0 13
-70 43 -82 36 -6 -4 -8 -3 -5 2 7 13 -170 97 -185 88 -6 -4 -8 -3 -5 3 3 5
-31 27 -76 48 -45 20 -113 53 -150 72 -37 18 -72 31 -78 28 -5 -4 -9 -2 -9 4
0 9 -116 67 -130 65 -3 0 -11 6 -19 13 -7 8 -22 11 -35 8 -17 -5 -18 -4 -6 4
13 10 13 11 0 12 -8 1 -18 1 -22 0 -5 0 -8 4 -8 9 0 6 -4 10 -9 10 -6 0 -56
22 -112 50 -56 27 -107 46 -112 43 -6 -3 -7 -2 -4 4 8 12 -111 65 -126 56 -6
-4 -7 -1 -2 7 6 10 4 12 -9 7 -9 -4 -15 -3 -12 1 7 12 -281 155 -295 146 -7
-4 -9 -3 -6 3 9 14 -131 65 -162 58 -17 -4 -21 -2 -13 3 23 15 -23 23 -158 28
-83 2 -142 -1 -175 -9z m254 -609 c31 -11 81 -32 111 -45 30 -14 65 -26 77
-27 11 0 19 -4 17 -7 -2 -3 23 -16 54 -29 31 -13 88 -38 125 -57 37 -18 73
-31 80 -27 7 4 9 4 5 -1 -9 -10 151 -87 164 -79 7 5 8 2 3 -6 -6 -10 -4 -12 9
-7 10 4 15 3 11 -3 -3 -6 -2 -10 3 -10 5 0 107 -47 226 -105 120 -58 222 -102
228 -99 6 4 8 2 5 -3 -8 -13 20 -26 36 -16 7 3 9 2 4 -2 -10 -11 223 -127 241
-120 8 3 10 0 6 -7 -5 -8 -2 -9 10 -5 9 4 15 3 12 -1 -8 -13 121 -72 141 -66
13 4 14 3 5 -3 -16 -12 51 -45 75 -37 14 5 15 4 4 -4 -11 -8 -9 -11 9 -17 13
-4 66 -27 117 -51 52 -25 99 -41 105 -38 6 4 8 2 4 -4 -3 -6 4 -14 16 -18 13
-4 88 -38 167 -75 79 -38 146 -67 148 -65 3 2 21 -7 40 -20 38 -26 59 -31 47
-12 -4 7 -3 8 5 4 6 -4 9 -11 6 -15 -2 -5 30 -24 73 -42 42 -19 77 -32 78 -29
0 3 9 -3 19 -13 9 -10 24 -16 32 -13 8 3 12 2 9 -3 -3 -5 18 -19 47 -31 28
-12 115 -54 191 -92 77 -38 146 -66 153 -63 9 3 11 0 7 -7 -5 -8 -2 -9 10 -5
9 4 15 3 12 -2 -8 -12 70 -45 85 -36 7 5 10 4 5 -3 -8 -14 30 -36 46 -26 6 4
8 3 5 -3 -7 -11 56 -44 75 -39 7 1 9 1 5 -2 -5 -2 69 -44 165 -91 265 -134
298 -153 298 -177 0 -13 -52 -46 -67 -42 -16 4 -53 -23 -47 -34 4 -6 3 -8 -4
-4 -6 3 -32 -7 -59 -22 -27 -16 -81 -44 -120 -62 -40 -18 -69 -38 -66 -43 3
-6 1 -7 -4 -4 -15 9 -166 -66 -156 -77 4 -5 3 -6 -4 -2 -16 9 -166 -68 -155
-79 4 -5 1 -5 -5 -1 -12 7 -68 -19 -233 -108 -41 -23 -77 -41 -80 -41 -3 -1
-39 -18 -80 -40 -41 -21 -121 -61 -178 -90 -56 -28 -99 -54 -95 -59 4 -4 -1
-4 -11 0 -13 5 -17 4 -12 -4 5 -8 1 -10 -10 -5 -10 4 -15 2 -11 -4 3 -5 0 -10
-8 -10 -22 0 -404 -197 -399 -205 3 -4 -3 -5 -12 -1 -13 5 -15 3 -9 -7 5 -8 4
-11 -3 -6 -14 9 -163 -65 -155 -77 3 -6 1 -7 -5 -3 -6 4 -22 0 -34 -8 -13 -8
-121 -63 -241 -123 -120 -60 -214 -113 -210 -118 4 -4 3 -5 -4 -2 -14 9 -375
-172 -368 -184 4 -5 0 -7 -7 -4 -17 7 -161 -69 -151 -79 4 -4 -1 -4 -11 0 -15
6 -17 4 -11 -6 5 -8 4 -11 -3 -6 -13 8 -143 -54 -136 -66 3 -4 -3 -5 -12 -1
-13 5 -15 3 -9 -7 5 -8 4 -11 -3 -6 -6 3 -98 -36 -204 -87 -304 -148 -290
-143 -353 -123 -29 9 -103 41 -165 71 -61 30 -115 53 -120 50 -5 -3 -12 0 -15
5 -10 15 -406 210 -416 205 -4 -3 -9 -1 -11 4 -5 15 -108 62 -120 55 -6 -4 -8
-3 -5 2 7 13 -201 117 -215 108 -7 -5 -8 -2 -3 6 6 10 4 12 -9 7 -9 -4 -15 -3
-12 1 7 12 -63 44 -77 36 -7 -4 -9 -4 -5 1 10 11 -39 36 -56 29 -8 -3 -17 -1
-21 5 -4 7 1 9 12 6 10 -3 -17 12 -61 34 -43 23 -83 38 -89 34 -5 -3 -7 -2 -4
4 8 12 -141 86 -155 77 -7 -5 -8 -2 -3 6 6 10 4 12 -9 7 -9 -4 -15 -3 -12 1 7
12 -123 74 -136 66 -6 -4 -8 -3 -5 3 8 12 -141 86 -155 77 -7 -5 -8 -2 -3 6 6
10 4 12 -9 7 -9 -4 -15 -3 -12 1 3 4 -90 55 -206 113 -116 57 -247 123 -291
146 -44 24 -84 40 -88 37 -5 -3 -9 -1 -9 4 0 14 -141 83 -154 75 -6 -3 -7 -2
-3 3 10 11 -141 86 -156 77 -6 -4 -7 -1 -2 7 6 10 4 12 -11 6 -10 -4 -15 -4
-11 0 4 5 -138 81 -315 170 -331 165 -380 191 -426 223 -15 11 -43 22 -63 25
-20 4 -44 15 -54 26 -10 11 -22 17 -26 14 -5 -3 -6 2 -3 10 7 17 107 84 176
117 26 12 45 26 42 31 -3 4 3 5 12 1 11 -4 15 -2 11 4 -4 6 -1 10 6 9 20 -2
137 56 131 65 -3 5 3 6 12 2 13 -5 15 -3 9 7 -5 8 -4 11 2 7 14 -9 145 52 137
64 -3 5 1 6 8 4 18 -7 161 59 151 69 -4 4 1 4 11 0 15 -6 17 -4 11 6 -6 9 -4
11 4 5 16 -9 92 25 84 38 -3 6 -1 7 5 3 5 -3 43 9 83 27 47 22 68 36 58 40 -8
4 -4 4 7 2 13 -4 29 1 40 12 9 10 22 18 28 18 24 0 125 48 120 56 -3 5 3 6 12
2 13 -5 15 -3 9 7 -5 8 -4 11 2 7 6 -4 62 19 124 50 63 31 119 57 124 59 30 6
164 82 157 89 -4 5 -2 5 5 1 12 -7 63 12 63 24 0 4 6 7 13 7 22 0 316 146 311
154 -3 5 1 7 8 4 15 -6 111 39 102 47 -3 3 1 5 8 5 23 -3 138 55 131 66 -3 6
-1 7 6 3 14 -9 341 146 333 158 -3 5 0 6 6 2 15 -9 55 18 44 29 -4 5 -1 5 6 1
19 -11 355 146 339 157 -8 6 -6 7 5 3 22 -7 219 84 211 97 -3 6 -1 7 6 3 7 -4
77 21 159 57 81 35 164 70 184 78 27 9 34 16 25 22 -8 6 -7 7 5 3 9 -3 43 5
74 18 31 13 52 25 46 27 -7 2 13 5 44 6 36 1 76 -5 113 -19z m-304 -46 c-3 -3
-11 0 -18 7 -9 10 -8 11 6 5 10 -3 15 -9 12 -12z m2500 -360 c-3 -3 -11 0 -18
7 -9 10 -8 11 6 5 10 -3 15 -9 12 -12z m465 -227 c0 -2 -6 -5 -13 -8 -8 -3
-14 1 -14 8 0 7 6 11 14 8 7 -3 13 -6 13 -8z m-5146 -2454 c-4 -4 460 -241
473 -241 2 0 1 5 -3 12 -4 7 -3 8 5 4 6 -4 9 -11 6 -15 -2 -5 7 -13 21 -20 20
-9 30 -9 43 1 13 10 14 10 4 -2 -10 -11 -3 -17 35 -36 25 -12 51 -20 56 -17 5
4 6 1 3 -4 -8 -13 20 -26 35 -16 6 3 8 2 5 -4 -8 -12 90 -56 105 -47 6 4 8 3
5 -3 -8 -12 360 -196 375 -187 6 4 8 3 5 -3 -8 -12 121 -76 135 -67 6 4 8 3 5
-3 -8 -12 161 -96 175 -87 7 5 8 2 3 -6 -6 -10 -4 -12 9 -7 9 4 15 3 12 -1 -8
-13 61 -42 81 -36 13 4 14 3 5 -3 -9 -7 -6 -13 13 -21 15 -7 31 -9 37 -6 6 4
8 3 5 -3 -8 -12 161 -96 175 -87 6 4 8 3 5 -3 -5 -9 284 -157 308 -158 6 0 24
-10 40 -21 42 -29 135 -75 135 -68 0 4 8 0 18 -9 28 -25 67 -30 101 -13 17 9
32 15 33 14 2 -2 23 9 48 24 48 28 212 110 457 228 83 41 149 78 146 83 -3 6
-1 7 5 3 14 -8 165 68 155 78 -4 4 1 4 11 0 13 -5 17 -4 13 3 -4 6 -1 10 6 9
20 -2 137 56 131 65 -3 5 3 6 12 2 13 -5 15 -3 9 7 -5 8 -4 11 3 6 14 -9 143
55 135 67 -3 6 -1 7 5 3 13 -8 198 82 194 95 -1 6 3 9 10 7 7 -1 48 13 91 32
54 23 73 36 65 43 -10 6 -9 7 3 4 20 -6 311 137 301 148 -4 5 -2 5 5 2 15 -9
198 84 183 93 -8 5 -6 9 5 13 9 4 13 3 10 -3 -3 -6 -2 -10 2 -10 18 0 164 76
158 82 -4 3 -1 9 6 14 8 4 10 3 5 -4 -11 -19 -1 -15 91 33 47 25 87 44 88 43
17 -22 22 -46 14 -65 -5 -13 -8 -63 -7 -111 1 -48 1 -198 0 -333 l-2 -245
-140 -71 c-76 -39 -136 -74 -132 -78 4 -5 2 -5 -5 -2 -16 10 -44 -3 -36 -17 3
-6 3 -8 -1 -4 -4 3 -21 2 -38 -4 -23 -8 -27 -13 -16 -20 10 -8 9 -9 -4 -5 -21
7 -91 -26 -81 -38 4 -4 2 -5 -5 -1 -8 5 -22 0 -34 -11 -11 -10 -22 -16 -25
-14 -9 7 -122 -53 -116 -62 3 -6 1 -7 -5 -3 -6 3 -22 1 -37 -6 -19 -8 -22 -14
-13 -21 9 -6 8 -7 -4 -3 -21 6 -71 -18 -60 -29 4 -5 2 -5 -5 -2 -6 4 -19 4
-28 1 -13 -6 -14 -9 -3 -16 10 -7 9 -8 -4 -4 -22 7 -50 -3 -42 -15 3 -5 -3 -6
-12 -2 -13 5 -15 3 -9 -7 5 -8 4 -11 -2 -7 -14 9 -165 -67 -156 -78 5 -4 3 -5
-3 -2 -15 8 -147 -57 -137 -67 4 -4 -1 -4 -11 0 -13 5 -17 4 -13 -3 4 -6 1
-10 -6 -9 -6 0 -45 -14 -85 -33 -52 -25 -69 -37 -60 -44 10 -6 8 -7 -4 -4 -21
7 -112 -36 -101 -47 4 -5 3 -6 -4 -2 -17 10 -67 -15 -51 -26 9 -5 7 -7 -7 -6
-31 4 -169 -63 -153 -75 9 -6 8 -7 -4 -3 -18 5 -75 -19 -61 -26 4 -3 2 -3 -5
-2 -21 6 -104 -39 -89 -48 8 -5 5 -7 -8 -6 -27 4 -166 -62 -158 -75 3 -6 1 -7
-5 -3 -14 9 -163 -65 -155 -77 3 -6 1 -7 -5 -3 -15 9 -55 -18 -44 -29 4 -5 1
-5 -7 0 -17 10 -113 -34 -104 -48 3 -6 1 -7 -5 -3 -14 8 -55 -18 -45 -28 4 -4
0 -4 -8 -1 -8 3 -29 -1 -45 -10 -31 -16 -79 -21 -70 -6 6 9 -70 46 -91 44 -7
0 -11 3 -8 7 6 9 -40 31 -57 26 -7 -1 -9 -1 -4 2 15 8 -142 82 -161 76 -13 -4
-15 -3 -5 4 10 7 3 14 -30 28 -24 10 -49 18 -55 17 -7 0 -11 3 -8 7 6 10 -51
31 -61 22 -4 -4 -4 -2 -1 4 7 12 -65 49 -90 47 -7 0 -11 3 -8 7 6 10 -51 31
-61 22 -4 -4 -3 -1 1 7 6 11 4 13 -11 7 -10 -4 -15 -4 -11 0 10 10 -63 45 -76
37 -5 -3 -7 -2 -4 4 7 11 -56 44 -75 39 -7 -1 -9 -1 -4 2 4 2 -22 20 -58 38
-37 19 -72 31 -79 28 -7 -4 -8 -3 -4 2 10 10 -142 86 -156 77 -6 -4 -7 -1 -2
7 6 10 4 12 -11 6 -10 -4 -15 -4 -11 0 10 10 -483 255 -497 247 -6 -3 -8 -3
-4 2 10 10 -722 376 -739 370 -7 -2 -12 -1 -11 3 1 4 -2 174 -6 379 -5 204 -6
375 -3 380 3 5 15 9 26 9 11 0 18 -3 15 -5z m1461 -99 c-3 -3 -11 0 -18 7 -9
10 -8 11 6 5 10 -3 15 -9 12 -12z m163 -88 c2 -1 -5 -5 -15 -8 -9 -4 -14 -4
-10 0 4 4 1 14 -6 23 -11 14 -10 15 8 1 11 -8 21 -15 23 -16z m2527 -124 c-3
-5 -12 -10 -18 -10 -7 0 -6 4 3 10 19 12 23 12 15 0z m-3285 -85 c0 -2 -6 -5
-13 -8 -8 -3 -14 1 -14 8 0 7 6 11 14 8 7 -3 13 -6 13 -8z m2915 -83 c-3 -3
-11 0 -18 7 -9 10 -8 11 6 5 10 -3 15 -9 12 -12z m-140 -82 c3 -6 -1 -7 -9 -4
-18 7 -21 14 -7 14 6 0 13 -4 16 -10z m1505 -634 c0 -2 -7 -7 -16 -10 -8 -3
-12 -2 -9 4 6 10 25 14 25 6z m-3765 -274 c-3 -3 -11 0 -18 7 -9 10 -8 11 6 5
10 -3 15 -9 12 -12z m1623 -847 c-2 -1 -14 -8 -28 -14 -22 -11 -23 -10 -8 2
10 8 15 17 11 21 -4 4 1 4 10 0 10 -3 17 -8 15 -9z"/>
<path d="M7228 11060 c-42 -5 -96 -14 -120 -20 -104 -26 -157 -44 -152 -52 3
-4 -3 -5 -12 -1 -13 5 -15 3 -9 -7 5 -8 4 -11 -2 -7 -15 9 -75 -17 -66 -28 5
-4 3 -5 -4 -1 -16 9 -65 -23 -56 -37 4 -6 1 -7 -6 -3 -20 13 -197 -116 -186
-135 3 -4 0 -11 -6 -15 -8 -5 -9 -3 -4 7 5 8 -1 6 -13 -5 -12 -10 -19 -23 -15
-29 3 -6 1 -7 -5 -3 -13 8 -35 -28 -24 -39 4 -3 1 -5 -7 -3 -16 3 -72 -72 -64
-86 4 -5 1 -6 -4 -3 -6 4 -29 -24 -53 -63 -27 -45 -50 -72 -64 -74 -11 -3 -65
-12 -119 -21 -119 -19 -269 -64 -260 -78 3 -6 1 -7 -5 -3 -22 14 -155 -67
-225 -137 -31 -31 -37 -41 -26 -49 11 -8 10 -9 -3 -4 -28 9 -108 -100 -92
-126 4 -6 3 -8 -3 -5 -14 9 -38 -50 -53 -131 -11 -52 -16 -62 -34 -63 -129 -3
-278 -42 -261 -69 3 -5 0 -12 -6 -16 -8 -4 -9 -3 -5 4 4 7 3 12 -3 12 -5 0
-18 -13 -28 -30 -9 -16 -20 -30 -24 -30 -14 0 -37 -77 -38 -128 -1 -80 53
-213 80 -197 5 4 6 0 4 -7 -8 -20 84 -86 163 -118 l67 -27 3 -663 c1 -469 -1
-667 -9 -676 -6 -7 -44 -31 -84 -53 -83 -46 -147 -115 -149 -160 -1 -16 -4
-27 -8 -25 -11 7 -21 -83 -13 -123 14 -79 78 -161 160 -208 22 -13 171 -71
330 -130 160 -59 304 -113 320 -120 17 -8 62 -25 100 -38 161 -58 351 -128
370 -137 11 -5 65 -26 120 -46 55 -19 136 -49 180 -66 44 -16 90 -30 102 -30
13 0 21 -3 19 -7 -3 -5 227 -94 539 -208 39 -14 79 -30 90 -35 12 -5 27 -10
35 -11 8 -2 20 -6 27 -10 12 -7 120 -48 313 -117 58 -20 232 -85 388 -144 156
-59 288 -104 294 -100 7 5 8 3 4 -5 -5 -8 -3 -11 5 -10 8 2 24 -2 36 -9 45
-25 185 -72 195 -66 6 4 8 2 5 -3 -4 -6 3 -13 16 -16 12 -3 64 -21 116 -41 51
-20 98 -33 104 -29 6 4 7 1 2 -7 -6 -10 -4 -12 8 -7 9 3 17 2 19 -2 2 -4 35
-19 73 -34 277 -102 449 -166 570 -212 248 -93 227 -90 320 -54 44 17 109 41
145 54 36 12 112 41 170 63 58 22 170 64 250 93 80 29 147 56 150 59 3 3 12 6
20 7 8 1 76 25 150 53 74 28 163 61 197 73 43 14 59 24 50 30 -8 6 -7 7 5 3
19 -6 211 60 216 74 2 5 10 6 19 3 12 -5 14 -3 8 7 -5 8 -4 11 2 7 5 -3 47 7
93 23 45 17 84 30 87 30 2 0 1 5 -3 12 -5 8 -2 9 9 5 18 -7 141 36 131 45 -3
4 3 4 14 2 10 -3 25 1 33 9 8 7 20 12 28 9 9 -3 11 0 6 8 -6 10 -4 12 7 7 9
-3 56 9 105 28 48 18 169 63 268 100 99 36 189 70 200 75 11 5 151 57 312 116
166 61 289 112 286 117 -3 6 -1 7 5 3 14 -8 243 75 236 85 -2 4 6 5 18 1 16
-4 19 -2 13 8 -5 9 -4 11 4 6 17 -11 185 55 169 66 -8 6 -5 7 11 3 15 -5 47 2
90 19 75 29 274 104 536 201 99 37 184 69 190 73 5 4 15 7 22 8 32 5 264 98
274 110 6 8 17 14 24 14 7 0 19 8 26 17 12 14 12 16 0 8 -10 -5 -12 -4 -7 4 4
6 11 9 15 6 14 -8 54 33 45 46 -4 8 -3 9 4 5 14 -8 46 50 36 66 -4 6 -3 8 3 5
12 -7 27 89 19 113 -3 8 -10 35 -16 59 -9 34 -14 41 -22 30 -7 -10 -8 -9 -3 7
9 33 -58 98 -145 143 l-75 38 -3 676 -2 675 30 7 c17 4 28 10 25 15 -3 4 3 6
13 3 11 -3 32 7 52 24 19 15 30 21 25 13 -8 -13 -7 -13 11 0 30 23 74 70 74
81 0 5 6 8 13 7 6 -2 27 26 45 61 39 78 43 153 12 225 -18 43 -37 67 -23 29 6
-15 5 -16 -9 -3 -8 8 -14 20 -11 26 7 18 -60 70 -115 87 -28 9 -84 19 -124 21
-40 3 -76 5 -80 5 -4 1 -10 18 -13 39 -14 78 -74 232 -91 232 -3 0 -3 -7 0
-16 3 -9 2 -12 -5 -9 -5 4 -7 15 -4 25 8 26 -115 147 -203 199 -92 55 -242
106 -372 127 -148 23 -150 23 -150 34 0 19 -62 110 -71 105 -5 -4 -6 0 -3 8 3
8 -5 23 -18 34 -13 10 -24 25 -26 33 -1 8 -18 29 -36 47 -19 17 -31 35 -28 39
4 4 -1 4 -11 1 -11 -4 -16 -3 -12 4 7 10 -101 118 -119 119 -4 0 -22 11 -38
26 -17 14 -37 23 -44 20 -8 -3 -13 -1 -11 5 5 26 -183 102 -333 135 -110 24
-362 24 -512 -1 -64 -10 -115 -21 -113 -25 2 -3 -12 -7 -30 -7 -34 -1 -50 -5
-230 -59 -130 -39 -350 -131 -347 -144 1 -6 -2 -9 -8 -5 -15 9 -51 -5 -44 -16
3 -6 0 -9 -7 -7 -23 5 -129 -43 -122 -55 3 -5 1 -7 -4 -4 -15 9 -174 -70 -170
-84 1 -6 -5 -14 -13 -16 -13 -4 -13 -3 0 6 8 6 11 11 7 11 -9 0 -274 -150
-309 -175 -10 -6 -15 -15 -10 -20 4 -5 2 -5 -5 -2 -15 9 -45 -2 -37 -14 3 -5
-1 -9 -8 -9 -23 0 -130 -73 -118 -80 8 -5 6 -9 -5 -13 -9 -4 -13 -3 -10 3 10
16 -1 12 -54 -21 -28 -18 -51 -37 -51 -42 0 -6 -3 -7 -7 -4 -9 10 -34 -14 -26
-26 3 -6 1 -7 -6 -3 -14 9 -43 -12 -35 -25 3 -5 -1 -6 -9 -4 -7 3 -43 -16 -79
-42 -36 -26 -86 -63 -112 -81 -28 -19 -44 -37 -40 -44 4 -7 3 -8 -5 -4 -10 6
-57 -20 -87 -49 -6 -6 -36 -28 -67 -49 -31 -21 -54 -43 -50 -49 3 -6 2 -7 -4
-4 -5 3 -35 -14 -66 -39 -64 -50 -76 -53 -102 -24 -20 22 -40 27 -29 8 4 -8 3
-10 -2 -5 -5 5 -9 12 -9 16 0 10 -38 42 -159 130 -54 40 -95 68 -92 62 4 -7 1
-9 -8 -5 -9 3 -14 10 -11 14 8 13 -62 63 -76 54 -7 -4 -9 -3 -6 3 8 13 -79 76
-93 68 -6 -4 -9 -2 -8 3 3 10 -105 92 -122 92 -4 0 -10 4 -12 8 -5 13 -288
196 -288 186 0 -3 -14 6 -31 20 -43 36 -87 58 -101 50 -6 -4 -8 -3 -5 3 8 13
-170 116 -185 107 -6 -4 -8 -3 -5 3 8 13 -139 87 -154 78 -5 -4 -8 -1 -7 5 8
31 -651 290 -703 277 -10 -3 -17 -2 -14 3 3 4 -8 10 -23 13 -201 38 -277 48
-387 51 -71 3 -165 1 -207 -4z m418 -434 c129 -29 263 -71 401 -126 53 -22
100 -37 104 -34 4 2 9 0 11 -4 6 -15 140 -72 152 -65 6 3 8 2 3 -2 -9 -11 173
-106 186 -98 6 4 7 1 2 -7 -6 -10 -4 -12 9 -7 9 4 14 3 11 -2 -3 -5 5 -13 17
-16 12 -4 46 -23 76 -42 39 -25 57 -32 65 -24 6 6 15 11 21 11 5 0 1 -6 -9
-14 -18 -13 -18 -14 6 -21 13 -4 32 -14 41 -22 9 -8 22 -12 30 -7 7 4 10 4 6
-1 -9 -10 140 -108 152 -100 5 3 12 0 16 -6 5 -8 3 -9 -6 -4 -9 5 -11 4 -6 -3
4 -7 11 -12 16 -12 5 0 29 -14 54 -31 25 -17 51 -27 57 -23 7 4 9 3 6 -3 -8
-13 19 -37 32 -29 5 4 13 1 17 -5 4 -8 3 -9 -4 -5 -7 4 -12 5 -12 3 0 -3 24
-20 53 -38 28 -19 92 -62 141 -97 64 -46 91 -61 99 -53 6 6 15 11 21 11 5 0 2
-6 -7 -13 -16 -11 0 -25 135 -127 84 -63 161 -122 171 -130 10 -8 23 -15 30
-15 7 0 12 -5 12 -10 0 -6 32 -37 70 -70 39 -32 87 -74 108 -92 21 -19 43 -31
49 -27 6 4 8 3 4 -4 -3 -6 -1 -14 4 -17 14 -9 52 24 43 38 -3 6 -1 7 5 3 6 -4
21 1 33 11 142 118 228 197 222 205 -3 7 -1 8 6 4 15 -10 84 42 75 56 -4 7 -2
8 5 4 6 -4 46 19 94 56 45 35 95 71 110 81 16 11 25 23 21 30 -4 7 -4 9 1 5
14 -13 44 11 40 32 -2 12 0 18 6 15 5 -4 7 -11 4 -16 -10 -15 4 -10 35 13 16
11 26 26 23 31 -3 6 -1 7 5 3 11 -7 187 108 187 123 0 5 4 13 9 18 5 5 6 2 1
-6 -5 -9 -3 -12 6 -9 8 3 13 11 11 17 -1 7 2 10 8 6 5 -3 29 7 52 23 24 16 62
39 85 52 23 13 40 26 38 30 -2 4 1 7 8 7 7 0 30 11 52 25 81 52 266 158 275
158 5 0 13 7 18 16 5 9 11 15 13 13 2 -2 37 12 77 31 52 24 69 36 60 43 -9 6
-8 7 4 3 21 -6 221 87 211 99 -4 4 -3 5 4 2 18 -11 127 34 111 46 -10 7 -9 8
4 4 9 -3 76 14 150 39 231 78 337 97 533 98 151 1 178 -2 243 -22 40 -12 78
-20 85 -16 7 4 9 3 5 -1 -5 -5 16 -22 45 -38 74 -42 123 -84 168 -142 21 -27
43 -55 48 -61 5 -6 6 -16 3 -22 -6 -9 -78 -27 -159 -39 -18 -3 -33 -9 -33 -15
0 -5 -4 -7 -9 -3 -10 5 -167 -33 -251 -62 -25 -8 -49 -16 -55 -17 -57 -13 -75
-19 -75 -26 0 -5 -7 -7 -15 -4 -8 4 -15 1 -15 -6 0 -6 -4 -8 -10 -5 -5 3 -38
-5 -72 -18 -35 -14 -97 -37 -138 -52 -73 -26 -131 -50 -99 -41 9 2 16 -2 16
-9 0 -10 -6 -11 -21 -4 -17 8 -58 -7 -201 -71 -99 -45 -197 -88 -217 -97 -21
-8 -36 -19 -33 -23 3 -5 0 -12 -6 -16 -8 -4 -9 -3 -5 4 4 7 4 12 0 12 -9 0
-392 -198 -417 -215 -10 -7 -15 -15 -10 -17 4 -3 2 -3 -5 -1 -21 5 -74 -26
-66 -39 4 -6 3 -8 -4 -4 -15 9 -144 -63 -135 -76 3 -7 1 -8 -5 -4 -16 10 -54
-12 -46 -26 4 -7 2 -8 -5 -4 -17 11 -144 -65 -128 -77 8 -6 6 -7 -6 -3 -12 4
-36 -5 -63 -24 -25 -16 -58 -37 -75 -45 -17 -9 -27 -21 -23 -27 4 -7 3 -8 -4
-4 -7 4 -32 -5 -58 -20 -34 -20 -42 -29 -32 -36 9 -7 8 -8 -5 -4 -12 4 -35 -5
-62 -24 -24 -17 -48 -30 -53 -30 -5 0 -21 -11 -36 -25 -14 -13 -27 -24 -29
-22 -3 3 -187 -115 -187 -120 0 -2 5 -1 12 3 7 4 8 3 4 -5 -4 -6 -11 -9 -16
-6 -5 3 -22 -3 -37 -13 -116 -81 -335 -222 -345 -222 -7 0 -39 18 -71 40 -32
22 -62 38 -67 35 -5 -3 -12 0 -16 6 -4 8 -3 9 4 5 7 -4 12 -5 12 -3 0 7 -187
127 -198 127 -5 0 -13 7 -16 16 -4 9 -13 14 -22 10 -8 -3 -13 -2 -10 3 6 9
-151 114 -171 114 -7 0 -13 4 -13 8 0 13 -131 89 -142 83 -6 -4 -8 -2 -5 3 4
7 -40 39 -106 78 -61 37 -124 76 -139 87 -16 11 -33 16 -39 12 -8 -4 -9 -3 -5
4 10 16 -6 15 -24 0 -12 -11 -12 -10 -1 4 11 15 11 19 -5 25 -11 3 -31 15 -46
25 -16 11 -33 16 -39 12 -7 -4 -9 -3 -6 2 9 15 -98 75 -120 68 -12 -4 -14 -3
-5 3 9 7 -27 31 -119 81 -72 40 -136 73 -142 75 -7 1 -15 5 -18 9 -12 16 -162
87 -172 81 -6 -4 -7 -1 -2 7 6 10 4 12 -11 6 -10 -4 -15 -4 -11 1 10 9 -103
64 -117 56 -6 -3 -8 -2 -3 2 6 7 -115 72 -148 79 -5 1 -23 9 -40 18 -83 43
-247 108 -258 102 -7 -4 -9 -3 -4 1 9 10 -300 128 -313 120 -5 -3 -10 -1 -12
4 -5 15 -284 95 -478 137 -63 13 -121 27 -128 29 -42 15 126 190 229 240 38
18 66 35 63 38 -3 3 5 5 18 5 13 0 52 7 88 16 97 24 329 15 476 -18z m5934
-131 c5 3 11 1 14 -4 4 -5 -2 -8 -11 -7 -9 2 -18 8 -19 15 -1 6 0 7 3 1 2 -5
9 -8 13 -5z m-6817 -110 c-3 -9 -8 -14 -10 -11 -3 3 -2 9 2 15 9 16 15 13 8
-4z m6497 -49 c0 -2 -7 -7 -16 -10 -8 -3 -12 -2 -9 4 6 10 25 14 25 6z m-3964
-65 c-4 -5 -1 -11 6 -13 8 -3 6 -6 -4 -10 -11 -5 -15 -2 -13 10 5 23 4 22 11
22 3 0 3 -4 0 -9z m2030 -47 c18 -14 18 -14 -6 -3 -31 14 -36 19 -24 19 6 0
19 -7 30 -16z m-1696 -159 c0 -2 -6 -5 -13 -8 -8 -3 -14 1 -14 8 0 7 6 11 14
8 7 -3 13 -6 13 -8z m765 -5 c3 -6 -1 -7 -9 -4 -18 7 -21 14 -7 14 6 0 13 -4
16 -10z m-758 -25 c0 -8 -4 -12 -9 -9 -5 3 -6 10 -3 15 9 13 12 11 12 -6z
m-567 -49 c0 -2 -7 -7 -16 -10 -8 -3 -12 -2 -9 4 6 10 25 14 25 6z m-2425 -26
c268 -24 576 -109 949 -261 65 -27 124 -46 130 -42 6 3 8 3 4 -2 -10 -11 71
-47 86 -38 6 3 8 3 4 -2 -10 -10 91 -57 105 -48 5 3 7 1 4 -4 -8 -13 50 -36
66 -26 5 3 7 1 4 -4 -7 -11 108 -69 131 -66 7 0 11 -2 8 -5 -8 -8 81 -52 97
-48 6 1 8 1 4 -2 -4 -2 8 -13 28 -23 20 -11 41 -16 48 -13 7 4 9 3 4 -1 -9
-11 112 -77 126 -68 6 3 7 2 4 -4 -3 -5 29 -27 71 -50 113 -59 265 -144 279
-155 7 -5 18 -6 24 -2 8 5 9 3 4 -6 -6 -10 -4 -12 9 -7 11 5 15 3 10 -5 -5 -8
-2 -9 10 -5 9 4 15 3 12 -2 -8 -12 153 -103 167 -94 5 3 7 1 3 -5 -6 -10 157
-112 182 -112 6 0 12 -4 12 -8 0 -14 121 -82 133 -75 5 3 7 1 4 -4 -9 -14 121
-96 135 -87 6 4 8 2 5 -3 -9 -14 150 -116 165 -107 6 4 8 3 5 -3 -4 -6 4 -18
18 -27 27 -18 39 -21 30 -7 -3 5 -1 12 4 15 4 3 8 -3 7 -13 -1 -22 159 -135
177 -124 5 3 7 1 3 -5 -8 -13 60 -56 75 -46 8 5 9 3 4 -5 -5 -9 -2 -12 11 -9
11 2 19 8 19 15 0 6 4 15 9 20 5 5 6 3 2 -4 -12 -21 3 -15 50 18 24 18 41 36
38 40 -5 9 31 31 39 23 7 -8 427 267 422 277 -3 4 0 11 6 15 8 4 9 3 5 -4 -4
-7 -4 -12 0 -12 9 0 154 92 154 98 0 3 -7 10 -16 16 -13 10 -13 12 5 12 11 0
19 -3 19 -6 -1 -18 8 -16 60 14 31 18 56 38 54 45 -1 7 2 10 8 6 14 -9 91 36
83 48 -3 6 -1 7 5 3 6 -3 39 11 74 31 35 21 75 45 90 52 15 8 25 19 21 24 -3
6 -1 7 4 4 6 -4 44 12 84 35 218 124 219 124 206 138 -10 12 -9 12 4 2 14 -10
35 -3 128 46 61 32 108 62 104 67 -5 4 -3 6 2 2 14 -7 328 147 318 157 -4 4 1
4 11 0 15 -6 17 -4 11 6 -5 8 -4 11 3 6 6 -3 54 14 107 39 54 25 108 48 121
51 13 3 21 11 17 17 -3 5 -2 7 4 4 6 -4 71 18 145 48 74 30 191 74 261 98 70
24 124 47 119 52 -4 5 -2 5 5 1 6 -3 58 7 115 23 127 35 290 67 426 81 230 25
435 -17 566 -115 33 -24 64 -41 69 -38 6 3 7 1 3 -5 -10 -16 49 -76 66 -66 9
6 9 2 -2 -11 -14 -17 -13 -18 3 -12 15 6 16 4 6 -14 -6 -11 -33 -30 -60 -41
-27 -12 -46 -25 -42 -31 4 -6 1 -7 -6 -3 -10 7 -175 -57 -191 -74 -3 -3 -12
-6 -20 -8 -32 -7 -140 -59 -134 -65 3 -3 -4 -3 -17 0 -17 5 -20 3 -14 -7 5 -8
4 -11 -3 -7 -5 4 -39 -6 -74 -23 -34 -16 -69 -30 -76 -30 -7 0 -10 -5 -6 -12
4 -6 3 -8 -3 -5 -12 8 -118 -36 -128 -53 -3 -6 -10 -8 -14 -5 -8 4 -170 -61
-181 -73 -3 -3 3 -2 13 1 11 4 16 3 12 -4 -4 -6 -13 -8 -21 -5 -17 7 -147 -48
-137 -58 4 -4 -1 -4 -11 0 -15 6 -17 4 -11 -6 5 -9 4 -11 -3 -6 -12 7 -225
-81 -230 -95 -2 -5 -7 -7 -11 -4 -5 2 -26 -4 -47 -14 -22 -10 -56 -24 -76 -32
-20 -7 -34 -17 -31 -22 3 -6 1 -7 -4 -4 -13 8 -153 -52 -153 -65 0 -5 -4 -7
-9 -3 -13 7 -82 -26 -75 -37 3 -4 -1 -5 -9 -3 -7 3 -31 -2 -53 -11 -21 -9 -50
-21 -64 -26 -20 -8 -22 -11 -10 -19 12 -8 10 -9 -7 -4 -14 4 -50 -7 -100 -29
-43 -19 -92 -40 -110 -47 -17 -7 -29 -17 -27 -21 3 -4 -3 -5 -12 -1 -13 5 -15
3 -9 -7 5 -9 4 -11 -3 -6 -11 6 -70 -16 -212 -79 -30 -14 -153 -67 -272 -118
-120 -52 -215 -97 -210 -102 4 -5 2 -5 -5 -2 -6 4 -19 4 -28 1 -13 -6 -14 -9
-3 -16 10 -7 8 -8 -5 -4 -25 8 -151 -45 -135 -56 9 -6 6 -8 -7 -4 -24 6 -148
-47 -138 -59 5 -4 3 -5 -4 -2 -14 9 -45 -2 -38 -13 3 -5 -5 -6 -17 -2 -16 4
-19 2 -13 -8 5 -8 4 -11 -3 -7 -10 7 -455 -182 -474 -201 -6 -6 -17 -8 -26 -5
-9 4 -13 2 -9 -4 4 -6 1 -10 -6 -9 -21 2 -157 -56 -151 -65 3 -5 -1 -6 -8 -4
-7 3 -37 -6 -66 -20 -64 -31 -64 -31 -130 0 -30 14 -59 22 -65 18 -5 -3 -7 -2
-4 3 5 9 -158 82 -172 77 -3 -1 -13 4 -21 11 -8 7 -49 27 -90 44 -41 17 -142
60 -224 96 -81 36 -153 63 -159 59 -6 -3 -7 -1 -3 5 10 16 -16 15 -34 0 -12
-11 -12 -10 -2 3 10 13 -9 24 -142 82 -85 37 -161 64 -169 61 -8 -3 -18 -1
-22 5 -4 7 1 9 12 6 10 -3 -2 4 -27 16 -25 11 -55 22 -67 22 -11 1 -19 5 -17
8 4 7 -423 192 -443 192 -7 0 -10 4 -7 9 3 4 0 8 -6 8 -7 0 -43 14 -81 30 -38
17 -75 28 -82 24 -6 -4 -9 -3 -4 1 8 10 -47 36 -66 31 -6 -1 -8 -1 -4 2 5 2
-15 15 -43 28 -29 13 -57 21 -63 17 -5 -3 -7 -2 -4 4 8 12 -59 37 -74 27 -7
-4 -9 -3 -6 3 4 6 -29 26 -81 47 -48 20 -95 41 -105 47 -10 5 -22 7 -27 4 -6
-4 -10 -2 -10 4 0 5 -10 13 -22 17 -13 4 -50 20 -82 35 -33 16 -62 27 -64 24
-3 -3 -12 1 -21 8 -9 8 -72 37 -141 66 -69 29 -140 60 -159 69 -19 9 -43 15
-53 15 -11 -1 -16 3 -12 9 5 7 1 9 -9 5 -10 -3 -17 -3 -17 2 0 12 -121 62
-133 54 -5 -3 -7 -2 -4 4 6 9 -144 78 -170 78 -7 0 -18 6 -25 13 -6 6 -15 12
-20 12 -4 0 -31 11 -60 24 -99 45 -130 56 -141 49 -5 -3 -7 -2 -4 4 7 12 -141
75 -156 66 -5 -3 -7 -2 -4 4 8 12 -71 45 -86 36 -6 -4 -7 -1 -2 7 6 10 3 12
-13 8 -12 -4 -20 -2 -17 2 4 7 -20 20 -45 25 -3 0 -24 11 -48 23 -24 13 -51
20 -62 17 -10 -3 -21 -1 -25 4 -3 7 1 9 12 6 10 -3 -10 8 -44 24 -35 17 -63
36 -63 43 0 9 3 9 10 -2 9 -13 10 -13 11 0 1 8 1 20 0 26 -1 6 7 18 16 25 17
13 17 13 3 -5 -8 -11 14 9 50 45 36 35 84 73 107 84 23 11 40 22 38 25 -2 3 4
6 13 7 9 1 44 11 76 22 33 12 71 21 85 21 14 0 31 4 38 8 20 12 141 13 268 2z
m5965 -164 c0 -2 -7 -7 -16 -10 -8 -3 -12 -2 -9 4 6 10 25 14 25 6z m-2943
-253 c5 3 10 0 10 -8 0 -10 -5 -11 -19 -4 -10 5 -18 15 -18 22 0 8 3 8 9 -2 5
-7 13 -11 18 -8z m678 -11 c-3 -3 -11 0 -18 7 -9 10 -8 11 6 5 10 -3 15 -9 12
-12z m1265 -192 c0 -5 -5 -10 -11 -10 -5 0 -7 5 -4 10 3 6 8 10 11 10 2 0 4
-4 4 -10z m-5554 -330 c37 -16 71 -27 77 -23 6 4 7 1 2 -7 -5 -8 -3 -11 6 -8
8 3 21 0 29 -7 14 -11 112 -55 135 -60 5 -1 51 -21 100 -45 50 -23 100 -43
112 -44 11 0 19 -5 15 -10 -3 -5 3 -6 14 -2 10 4 15 4 11 0 -11 -11 120 -64
141 -58 12 4 13 3 5 -3 -9 -6 13 -20 70 -43 45 -19 87 -35 92 -35 6 0 12 -3
15 -6 3 -4 39 -21 80 -38 41 -18 85 -37 97 -43 11 -6 27 -7 34 -3 8 6 10 4 4
-5 -6 -10 -4 -12 9 -7 10 4 15 3 11 -3 -3 -6 -1 -10 4 -10 6 0 34 -11 63 -25
30 -15 61 -23 72 -19 14 3 17 2 9 -3 -15 -11 134 -76 150 -66 6 4 7 1 2 -7 -5
-8 -3 -11 6 -8 8 3 21 0 29 -7 21 -17 511 -228 532 -229 9 0 15 -2 13 -5 -8
-8 127 -61 139 -54 6 3 8 3 4 -2 -10 -11 170 -87 185 -79 7 4 9 3 4 -1 -9 -11
51 -37 66 -28 5 3 7 2 4 -4 -8 -13 99 -57 114 -47 7 4 9 3 6 -3 -7 -10 315
-155 350 -157 12 -1 19 -3 17 -5 -8 -8 147 -71 158 -65 7 5 8 2 3 -6 -6 -10
-3 -12 13 -8 14 4 20 2 15 -5 -4 -7 0 -8 11 -4 9 4 15 3 12 -1 -7 -11 142 -74
156 -66 6 4 8 3 5 -2 -7 -13 169 -87 184 -78 7 4 9 3 6 -3 -8 -13 50 -36 66
-26 5 3 7 1 4 -4 -4 -6 24 -23 66 -41 39 -16 142 -60 227 -97 85 -37 167 -69
182 -71 16 -2 55 9 90 25 35 16 74 32 87 36 19 6 21 9 10 17 -11 8 -10 9 4 4
23 -8 189 63 180 77 -4 6 0 8 11 4 20 -8 189 66 178 78 -4 4 1 5 11 2 9 -4 17
-2 17 4 0 6 4 8 10 4 5 -3 17 -1 27 4 32 18 112 51 123 51 6 0 8 5 4 12 -4 7
-3 8 4 4 14 -8 183 64 176 75 -3 5 1 6 9 4 17 -7 119 39 110 49 -4 4 1 4 11 0
15 -6 17 -4 11 6 -5 8 -4 11 3 6 13 -8 336 127 366 153 12 9 16 11 12 3 -6
-11 -2 -10 20 1 16 8 137 61 269 117 132 57 246 108 254 114 7 6 19 11 25 11
26 0 334 140 329 148 -3 6 -1 7 4 4 11 -7 175 56 202 77 7 6 19 11 25 11 26 0
174 69 169 78 -3 6 -1 7 4 4 14 -9 146 47 136 57 -4 4 1 4 11 0 15 -6 17 -4
11 6 -5 8 -4 11 3 7 9 -6 137 43 194 75 13 7 25 13 28 13 33 5 178 70 173 78
-3 5 -2 7 4 4 13 -8 145 47 136 57 -4 4 1 4 11 0 15 -6 17 -4 11 6 -5 9 -4 11
3 6 6 -4 82 24 169 62 87 38 175 75 195 82 20 8 34 18 31 23 -3 6 -1 7 4 4 6
-4 40 7 77 23 36 17 70 30 76 30 11 0 15 -1285 4 -1314 -3 -9 -12 -16 -20 -16
-8 0 -43 -12 -80 -26 -48 -20 -62 -29 -52 -36 9 -7 8 -8 -5 -4 -10 3 -30 3
-44 0 -19 -5 -22 -9 -11 -16 9 -7 8 -8 -6 -4 -18 6 -325 -104 -353 -127 -7 -5
-13 -7 -13 -3 0 4 -18 -3 -40 -14 -21 -11 -46 -20 -55 -20 -10 0 -13 -5 -9
-12 4 -6 3 -8 -3 -5 -16 10 -184 -53 -176 -66 4 -6 0 -8 -9 -4 -9 3 -103 -28
-209 -69 -107 -42 -227 -88 -267 -103 -40 -15 -70 -30 -66 -33 3 -4 -3 -6 -13
-5 -25 1 -433 -155 -427 -164 2 -4 -6 -5 -18 -1 -13 3 -19 1 -15 -5 4 -6 1
-11 -6 -10 -34 1 -48 -4 -41 -15 4 -7 3 -8 -5 -4 -13 8 -81 -14 -81 -27 0 -4
-4 -6 -9 -3 -11 7 -91 -24 -91 -36 0 -5 -4 -6 -10 -3 -5 3 -40 -6 -77 -21 -38
-14 -95 -37 -128 -49 -33 -13 -112 -43 -175 -68 -63 -25 -125 -48 -138 -52
-12 -3 -20 -10 -17 -15 3 -4 -5 -6 -17 -3 -19 4 -21 3 -8 -7 13 -10 13 -11 -2
-6 -23 7 -139 -35 -131 -47 3 -6 1 -7 -4 -4 -14 9 -104 -23 -97 -34 3 -5 -1
-6 -9 -3 -8 3 -59 -13 -115 -35 -55 -23 -105 -41 -112 -41 -6 0 -8 -5 -4 -12
4 -6 3 -8 -3 -5 -14 9 -83 -14 -76 -26 3 -6 1 -7 -5 -3 -6 4 -22 1 -34 -6 -13
-7 -29 -11 -37 -9 -7 1 -11 -1 -8 -6 3 -4 -5 -9 -16 -10 -12 0 -44 -11 -72
-24 -27 -12 -53 -22 -57 -21 -5 1 -8 -3 -8 -9 0 -5 -4 -8 -9 -5 -8 5 -271 -91
-281 -103 -3 -3 -12 -7 -20 -9 -8 -1 -31 -9 -50 -16 -19 -8 -68 -27 -108 -41
l-73 -27 -264 102 c-146 55 -270 98 -277 94 -6 -4 -8 -3 -5 2 3 6 -87 45 -201
88 -114 43 -229 87 -257 98 -27 11 -60 20 -72 21 -12 0 -21 3 -18 7 2 4 -53
28 -123 55 -161 60 -348 132 -525 201 -77 30 -143 51 -148 48 -5 -3 -9 -1 -9
4 0 9 -40 25 -65 26 -5 1 -12 3 -15 7 -14 15 -111 48 -126 42 -11 -4 -15 -3
-11 4 8 13 -80 46 -96 36 -5 -3 -8 -2 -4 3 8 14 -580 236 -606 229 -15 -4 -18
-3 -9 3 9 6 -1 15 -39 30 -28 12 -55 19 -60 16 -5 -3 -9 -1 -9 4 0 9 -40 25
-65 26 -5 1 -12 4 -15 7 -3 3 -61 27 -130 53 -145 55 -169 64 -270 104 -119
46 -169 64 -173 60 -1 -2 -15 5 -30 15 -14 9 -34 19 -44 20 -10 2 -40 14 -67
26 -27 12 -58 19 -70 16 -11 -3 -15 -2 -7 1 8 4 -13 17 -50 31 -35 14 -87 34
-116 46 l-52 20 -3 646 c-2 355 -1 652 1 659 5 17 14 16 87 -18z m3129 -120
c3 -6 -1 -7 -9 -4 -18 7 -21 14 -7 14 6 0 13 -4 16 -10z m1655 6 c0 -2 -7 -7
-16 -10 -8 -3 -12 -2 -9 4 6 10 25 14 25 6z m745 -314 c-3 -3 -11 0 -18 7 -9
10 -8 11 6 5 10 -3 15 -9 12 -12z m605 -317 c0 -2 -6 -5 -13 -8 -8 -3 -14 1
-14 8 0 7 6 11 14 8 7 -3 13 -6 13 -8z m-5440 -849 c0 -2 -7 -7 -16 -10 -8 -3
-12 -2 -9 4 6 10 25 14 25 6z m5230 -496 c0 -5 -5 -10 -11 -10 -5 0 -7 5 -4
10 3 6 8 10 11 10 2 0 4 -4 4 -10z m-2293 -656 c-3 -3 -12 -4 -19 -1 -8 3 -5
6 6 6 11 1 17 -2 13 -5z m1938 -52 c-3 -3 -11 0 -18 7 -9 10 -8 11 6 5 10 -3
15 -9 12 -12z m-1330 -492 c-3 -5 -12 -10 -18 -10 -7 0 -6 4 3 10 19 12 23 12
15 0z"/>
<path d="M10140 8450 c-9 -6 -10 -10 -3 -10 6 0 15 5 18 10 8 12 4 12 -15 0z"/>
<path d="M8716 4819 c4 -8 0 -9 -15 -4 -27 8 -131 -18 -209 -55 -83 -39 -183
-110 -175 -124 3 -6 2 -8 -2 -3 -9 8 -55 -30 -55 -46 0 -6 12 0 27 14 26 22
27 22 9 1 -11 -12 -31 -28 -44 -35 -29 -14 -105 -135 -97 -155 2 -7 1 -11 -4
-8 -14 9 -52 -123 -64 -222 -17 -147 14 -328 78 -452 13 -26 19 -30 27 -19 8
11 9 10 4 -4 -7 -22 22 -69 38 -60 6 3 8 3 4 -2 -10 -10 31 -67 43 -59 5 3 8
0 7 -8 -2 -7 3 -12 10 -10 8 1 11 -1 8 -6 -8 -14 41 -55 55 -47 8 5 10 4 5 -3
-9 -14 70 -65 86 -56 6 4 8 3 5 -3 -9 -14 109 -66 134 -60 12 3 17 1 12 -6 -4
-6 2 -8 15 -5 12 4 20 2 17 -2 -8 -14 120 -23 239 -18 112 5 234 37 294 76 13
9 38 23 55 33 18 9 31 22 29 29 -1 6 2 9 8 5 15 -9 41 14 33 29 -3 6 -2 8 2 3
11 -9 56 33 49 45 -3 5 -1 7 4 6 14 -5 64 60 56 73 -4 7 -3 9 4 5 11 -6 72
105 72 132 0 10 -34 12 -155 11 l-156 -1 -23 -37 c-29 -45 -86 -97 -132 -118
-18 -9 -32 -19 -30 -22 2 -3 -6 -7 -17 -8 -12 -1 -44 -6 -72 -13 -73 -17 -196
-5 -259 25 -40 19 -53 22 -65 12 -12 -9 -13 -9 -7 0 4 8 -15 34 -52 70 -96 95
-142 217 -142 378 0 194 67 330 207 421 114 74 291 86 413 27 73 -36 81 -42
129 -98 19 -22 39 -39 43 -37 5 1 8 -6 6 -15 -3 -17 10 -18 155 -21 86 -1 157
1 157 6 0 4 -6 14 -12 21 -10 11 -10 12 -1 7 9 -5 11 -2 7 8 -3 9 -10 14 -14
11 -5 -3 -6 4 -3 14 3 11 -4 28 -16 40 -12 12 -18 21 -15 21 9 0 -24 50 -54
82 -14 15 -29 25 -34 22 -5 -3 -7 0 -6 8 2 7 -3 12 -10 10 -8 -1 -11 2 -8 6 7
12 -28 44 -39 35 -4 -5 -5 -3 -2 3 11 19 -36 44 -59 31 -16 -9 -17 -8 -7 5 15
17 8 28 -19 28 -10 0 -18 4 -18 8 0 15 -51 33 -74 27 -14 -4 -17 -3 -8 3 18
12 -22 28 -121 47 -95 18 -262 21 -251 4z m434 -374 c7 -9 8 -15 2 -15 -5 0
-12 7 -16 15 -3 8 -4 15 -2 15 2 0 9 -7 16 -15z m-1013 -227 c-3 -8 -6 -5 -6
6 -1 11 2 17 5 13 3 -3 4 -12 1 -19z"/>
<path d="M13525 4810 c-38 -10 -74 -19 -79 -19 -4 -1 -5 -8 -2 -17 5 -14 4
-15 -8 -5 -16 13 -73 -10 -133 -55 -17 -13 -36 -24 -41 -24 -17 0 -172 -175
-167 -188 3 -7 1 -11 -4 -8 -11 7 -57 -80 -80 -151 -43 -131 -52 -251 -30
-382 11 -70 56 -201 68 -201 4 0 8 -6 8 -14 0 -14 41 -86 49 -86 3 0 2 5 -2
12 -4 7 -3 8 4 4 6 -4 9 -12 6 -19 -7 -19 111 -142 126 -132 8 5 11 4 6 -3 -8
-13 28 -35 39 -24 5 4 5 2 1 -5 -4 -7 2 -17 14 -23 11 -6 20 -8 20 -5 0 3 8
-3 19 -14 10 -10 56 -32 103 -49 108 -39 246 -56 353 -42 126 16 220 44 208
63 -3 6 -1 7 6 3 14 -9 121 42 128 61 3 7 9 11 13 8 4 -2 46 36 94 86 67 70
95 109 125 172 124 263 99 560 -66 789 -45 62 -164 170 -181 163 -7 -3 -10 0
-7 5 8 12 -72 53 -87 44 -6 -4 -8 -3 -4 4 7 11 -89 46 -159 58 -94 16 -268 13
-340 -6z m274 -235 c79 -8 157 -49 226 -118 33 -34 64 -60 68 -59 5 1 6 -2 3
-7 -3 -5 5 -31 18 -58 13 -26 29 -72 35 -101 14 -66 14 -212 0 -272 -6 -25
-11 -58 -11 -73 -1 -21 -3 -25 -10 -15 -7 9 -8 7 -5 -10 3 -14 1 -20 -6 -15
-7 4 -8 0 -3 -13 4 -10 4 -15 0 -11 -4 4 -26 -19 -49 -51 -39 -53 -120 -122
-144 -122 -5 0 -14 -6 -18 -12 -4 -7 -15 -14 -23 -15 -8 -1 -40 -8 -70 -14
-103 -21 -245 -1 -331 46 -14 8 -30 11 -34 7 -5 -4 -5 -1 -1 5 5 8 -5 20 -28
34 -19 11 -44 36 -55 55 -11 19 -25 34 -31 34 -5 0 -9 3 -9 8 4 18 -24 71 -34
65 -5 -3 -7 -1 -4 4 4 6 0 33 -9 59 -16 49 -28 327 -13 303 3 -6 9 5 13 23 8
46 48 127 80 165 27 32 34 49 16 38 -18 -11 -11 1 12 21 19 15 20 16 9 2 -7
-10 -10 -18 -6 -18 12 0 74 58 69 63 -3 3 3 4 13 4 10 -1 17 4 15 11 -1 8 1
11 6 8 10 -6 125 28 118 35 -6 5 125 2 193 -6z m196 -34 c3 -5 2 -12 -3 -15
-5 -3 -9 1 -9 9 0 17 3 19 12 6z m-804 -958 c13 -16 12 -17 -3 -4 -10 7 -18
15 -18 17 0 8 8 3 21 -13z"/>
<path d="M14690 4812 c-6 -2 -10 -261 -10 -723 l0 -720 138 3 137 3 3 493 c1
270 6 492 10 492 7 0 60 -75 95 -134 10 -17 25 -36 33 -43 9 -6 14 -13 13 -15
-6 -9 225 -347 234 -341 5 3 7 1 3 -5 -8 -14 42 -88 57 -84 7 2 9 0 5 -4 -8
-8 2 -26 100 -178 49 -75 66 -95 74 -85 8 11 9 10 4 -4 -3 -11 5 -34 20 -57
l27 -40 138 0 139 0 0 720 0 720 -135 0 -135 0 -1 -477 c-1 -263 -4 -488 -7
-501 -6 -20 -9 -19 -35 23 -16 25 -33 45 -38 45 -5 0 -8 3 -7 8 4 14 -65 111
-75 105 -6 -3 -7 -1 -3 5 7 13 -51 98 -65 95 -4 -2 -5 5 -2 14 5 12 3 14 -7 8
-8 -5 -11 -4 -7 2 8 13 -62 125 -74 117 -5 -3 -6 1 -4 9 3 7 -3 22 -15 32 -11
10 -20 22 -20 26 0 4 -29 51 -65 105 -36 54 -65 102 -65 107 0 4 -6 5 -12 1
-7 -4 -10 -4 -6 1 9 10 -10 47 -21 40 -5 -2 -8 3 -7 13 0 9 -4 16 -10 15 -7
-1 -11 5 -10 15 0 10 -5 16 -14 14 -8 -2 -12 0 -8 3 9 9 -13 52 -41 82 -12 13
-20 24 -19 25 1 2 -6 17 -17 35 l-19 32 -133 3 c-73 2 -138 2 -143 0z m484
-660 c3 -5 -1 -9 -9 -9 -8 0 -12 4 -9 9 3 4 7 8 9 8 2 0 6 -4 9 -8z m396 -298
c0 -8 -19 -13 -24 -6 -3 5 1 9 9 9 8 0 15 -2 15 -3z"/>
<path d="M4090 4090 l0 -720 415 0 416 0 -3 108 -3 107 -275 5 -275 5 -3 193
c-2 149 0 194 10 197 7 3 117 6 243 7 l230 3 3 107 3 108 -243 2 -243 3 -3
165 c-1 91 0 175 3 187 l5 23 273 2 272 3 3 108 3 107 -416 0 -415 0 0 -720z"/>
<path d="M5200 4091 l0 -721 303 0 c255 0 316 3 392 19 92 19 245 77 245 92 0
5 5 9 11 9 20 0 108 75 104 88 -3 7 0 10 5 7 18 -11 116 118 104 137 -4 6 -3
8 3 5 19 -12 78 149 68 185 -5 17 -4 19 3 9 14 -20 26 143 18 243 -8 113 -66
303 -87 290 -7 -4 -13 10 -7 19 6 8 -25 46 -34 41 -6 -4 -8 -3 -5 3 9 14 -32
65 -45 57 -7 -5 -8 -2 -3 6 5 8 -1 20 -16 32 -125 99 -177 128 -311 169 -68
21 -97 23 -410 26 l-338 5 0 -721z m915 611 c-3 -3 -11 0 -18 7 -9 10 -8 11 6
5 10 -3 15 -9 12 -12z m-222 -154 c37 -14 67 -24 67 -22 0 10 128 -119 140
-140 7 -14 16 -24 19 -21 4 2 7 -4 8 -13 1 -9 12 -44 24 -77 19 -50 23 -81 23
-185 1 -134 -12 -192 -60 -276 -13 -23 -20 -45 -16 -49 4 -5 2 -5 -4 -2 -15 9
-107 -90 -98 -104 5 -8 2 -9 -12 -1 -22 12 -65 -5 -45 -18 9 -5 8 -9 -4 -13
-10 -5 -14 -3 -9 5 5 8 0 9 -17 4 -97 -28 -170 -36 -297 -34 l-137 3 -1 480
c0 264 2 484 4 489 3 5 82 6 176 4 151 -5 179 -8 239 -30z"/>
<path d="M6694 4796 c-3 -8 -4 -239 -1 -513 4 -509 7 -549 44 -594 7 -9 10
-18 7 -22 -11 -10 49 -100 105 -157 99 -100 242 -153 416 -153 113 0 227 19
204 35 -10 7 -7 7 9 3 44 -13 233 100 216 127 -4 6 -2 8 4 4 25 -15 139 175
129 215 -3 10 -1 17 3 14 5 -3 12 14 16 37 6 32 8 560 4 1006 0 9 -34 12 -135
12 l-135 0 -2 -462 c-1 -255 -2 -480 -3 -501 0 -20 -3 -37 -7 -37 -3 0 -9 -13
-13 -29 -11 -52 -68 -114 -131 -146 -53 -25 -69 -29 -154 -28 -82 0 -102 4
-146 26 -28 14 -65 42 -82 61 -17 19 -32 32 -35 28 -2 -4 -2 -1 0 6 1 7 -5 28
-15 45 -15 29 -17 79 -20 535 l-3 502 -135 0 c-107 0 -136 -3 -140 -14z"/>
<path d="M10175 4768 c-9 -24 -44 -119 -77 -213 -33 -93 -64 -179 -69 -190 -6
-12 -11 -27 -13 -35 -2 -8 -6 -22 -9 -30 -22 -54 -50 -138 -50 -152 -1 -10 -5
-18 -10 -18 -5 0 -7 -7 -3 -15 3 -8 2 -15 -3 -15 -5 0 -11 -8 -14 -17 -3 -10
-21 -63 -42 -118 -20 -55 -40 -111 -45 -125 -11 -34 -102 -286 -139 -387 l-30
-83 143 0 144 0 10 28 c16 42 22 60 57 157 l31 90 293 0 c338 0 297 15 344
-127 16 -48 33 -85 37 -83 5 3 6 -5 3 -17 -4 -19 -3 -20 6 -8 9 12 10 9 5 -12
l-6 -28 146 0 c110 0 146 3 146 13 -1 23 -57 171 -62 161 -3 -5 -3 -4 -2 3 5
22 -27 103 -39 96 -7 -4 -8 0 -3 12 4 11 -15 77 -53 179 -33 89 -74 203 -91
253 -20 56 -37 90 -43 86 -6 -4 -8 0 -4 11 4 9 -2 40 -12 69 -11 28 -45 124
-77 212 -31 88 -61 162 -65 163 -5 2 -7 7 -4 12 7 11 -27 100 -38 100 -4 0 -6
4 -3 9 4 5 2 21 -4 35 l-10 26 -164 0 -164 0 -17 -42z m195 -309 c0 -11 4 -17
10 -14 6 4 7 -1 3 -11 -4 -12 -3 -15 5 -10 7 4 10 2 7 -6 -3 -8 33 -126 81
-263 47 -138 88 -257 91 -267 3 -11 -3 -17 -24 -21 -45 -9 -387 -7 -400 1 -12
8 6 69 53 181 8 18 12 42 8 53 -4 12 -2 18 4 15 9 -6 19 20 99 256 22 64 42
107 50 107 7 0 13 -9 13 -21z m-152 -324 c-3 -3 -9 2 -12 12 -6 14 -5 15 5 6
7 -7 10 -15 7 -18z"/>
<path d="M11179 4798 c-8 -134 -9 -167 -4 -185 5 -22 8 -23 198 -25 l192 -3 3
-607 2 -608 135 0 135 0 2 608 3 607 193 3 192 2 0 110 0 110 -525 0 c-413 0
-525 -3 -526 -12z"/>
<path d="M12460 4090 l0 -721 138 3 137 3 0 715 0 715 -137 3 -138 3 0 -721z"/>
</g>
</svg>
